<svg style="enable-background:new 0 0 32 32;" version="1.1" viewBox="0 0 32 32" xml:space="preserve" xmlns="http://www.w3.org/2000/svg" xmlns:xlink="http://www.w3.org/1999/xlink"><style type="text/css">
	.st0{fill:#B9F3F8;}
	.st1{fill:#55C1FA;}
	.st2{fill:#FBC34E;}
	.st3{opacity:0.05;}
	.st4{fill:#FFFFFF;}
	.st5{fill:#7A442A;}
	.st6{fill:#C77C58;}
	.st7{fill:#E4EDF2;}
	.st8{fill:#F25949;}
	.st9{fill:#FA9B55;}
	.st10{fill:#E5A533;}
	.st11{fill:#6FA7AB;}
	.st12{fill:#20A56C;}
	.st13{fill:#F2C09E;}
	.st14{fill:#F4E8D0;}
	.st15{fill:#F2AB38;}
	.st16{fill:#393B3D;}
	.st17{fill:#ACE4E5;}
	.st18{fill:#659899;}
	.st19{fill:#E3FAFC;}
	.st20{fill:#DDF1F2;}
	.st21{fill:#16F293;}
	.st22{fill:#5C3320;}
	.st23{fill:#AD410D;}
	.st24{fill:#8B9CA5;}
	.st25{fill:#B26C50;}
	.st26{fill:none;}
	.st27{fill:#DAE1E5;}
	.st28{fill:#425158;}
	.st29{fill:#829299;}
	.st30{fill:#A5795C;}
	.st31{fill:#7A7468;}
	.st32{fill:#7B3ABF;}
	.st33{fill:#B564FF;}
	.st34{fill:#2B617D;}
</style><g id="Magnifier"></g><g id="Gear"></g><g id="Home"></g><g id="Shield"></g><g id="Star"></g><g id="Flash"></g><g id="Heart"></g><g id="Hearts"></g><g id="Shopping_Bag"></g><g id="Token"></g><g id="Warning"></g><g id="Warning_B"></g><g id="Chat"></g><g id="Diamond"></g><g id="Hanger"></g><g id="Warning_C"></g><g id="Potion"></g><g id="Hourglass"></g><g id="Trophy"></g><g id="Bomb"></g><g id="Gem"></g><g id="Spell_Book"></g><g id="User"></g><g id="Users"></g><g id="Treasure_Chest"></g><g id="Treasure_Chest_Open"><g><path class="st23" d="M18.402,12.888c2.402,0,4.598,0.872,6.214,2.315v-7.28c0-0.297-0.241-0.538-0.538-0.538H7.923    c-0.297,0-0.538,0.241-0.538,0.538v7.28c1.615-1.443,3.802-2.315,6.214-2.315H18.402z"></path><path class="st6" d="M29.462,18.154h-0.538V5.231c0-1.185-0.969-2.154-2.154-2.154H5.231c-1.185,0-2.154,0.969-2.154,2.154v12.923    H2.538C2.237,18.154,2,18.391,2,18.692v9.154c0,0.592,0.485,1.077,1.077,1.077h25.846c0.592,0,1.077-0.485,1.077-1.077v-9.154    C30,18.391,29.763,18.154,29.462,18.154z M19.446,18.154l-3.026,3.782c-0.216,0.269-0.625,0.269-0.841,0l-3.026-3.782H5.231    c0.485-1.131,1.228-2.132,2.154-2.951v-7.28c0-0.297,0.241-0.538,0.538-0.538h16.154c0.297,0,0.538,0.241,0.538,0.538v7.28    c0.054,0.043,0.108,0.086,0.162,0.14c0.862,0.797,1.54,1.745,1.992,2.811H19.446z"></path><path class="st2" d="M24.615,15.203c-1.615-1.443-3.812-2.315-6.214-2.315h-4.803c-2.412,0-4.598,0.872-6.214,2.315    c-0.926,0.818-1.669,1.82-2.154,2.951h7.323h6.892h7.323c-0.452-1.066-1.131-2.014-1.992-2.811    C24.723,15.289,24.669,15.246,24.615,15.203z"></path><path class="st0" d="M15.58,21.936c0.216,0.269,0.625,0.269,0.841,0l3.026-3.782h-6.892L15.58,21.936z"></path></g></g><g id="Sack"></g><g id="Fishing_Pin"></g><g id="Sword"></g><g id="Sword_And_Shield"></g><g id="Backpack"></g><g id="Key"></g><g id="Meat"></g><g id="Skull"></g><g id="Store"></g><g id="Helmet"></g><g id="Anvil"></g><g id="Axe"></g><g id="Spear"></g><g id="Food"></g><g id="Bow"></g><g id="Scroll"></g><g id="Armor"></g><g id="Hat"></g><g id="Wand"></g><g id="Map"></g><g id="Mushroom"></g><g id="Feather"></g><g id="Wings"></g><g id="Fish"></g></svg>